<?xml version="1.0" standalone="no"?>
<!DOCTYPE svg PUBLIC "-//W3C//DTD SVG 20010904//EN"
 "http://www.w3.org/TR/2001/REC-SVG-20010904/DTD/svg10.dtd">
<svg version="1.0" xmlns="http://www.w3.org/2000/svg"
 width="32.000000pt" height="32.000000pt" viewBox="0 0 32.000000 32.000000"
 preserveAspectRatio="xMidYMid meet">

<g transform="translate(0.000000,32.000000) scale(0.100000,-0.100000)"
fill="#000000" stroke="none">
<path d="M67 230 c-6 -16 -18 -30 -25 -30 -9 0 -12 -6 -8 -16 3 -9 6 -39 6
-67 l0 -52 120 0 120 0 0 52 c0 28 3 58 6 67 4 10 1 16 -8 16 -7 0 -19 14 -25
30 -11 30 -11 30 -93 30 -82 0 -82 0 -93 -30z m174 -17 c8 -23 7 -23 -82 -23
-50 0 -88 3 -86 8 2 4 7 15 10 25 6 15 17 17 78 15 64 -3 73 -5 80 -25z m17
-85 l3 -38 -100 0 -101 0 0 33 c0 19 3 37 7 41 4 4 48 5 98 4 l90 -3 3 -37z"/>
<path d="M70 145 c0 -8 7 -15 15 -15 8 0 15 7 15 15 0 8 -7 15 -15 15 -8 0
-15 -7 -15 -15z"/>
<path d="M220 145 c0 -8 7 -15 15 -15 8 0 15 7 15 15 0 8 -7 15 -15 15 -8 0
-15 -7 -15 -15z"/>
<path d="M117 124 c-15 -15 -6 -19 43 -19 29 0 49 4 47 10 -4 12 -79 19 -90 9z"/>
</g>
</svg>
